<?xml version="1.0" encoding="UTF-8" standalone="no"?>
<!-- Created with Inkscape (http://www.inkscape.org/) -->
<svg xmlns:dc="http://purl.org/dc/elements/1.1/" xmlns:cc="http://creativecommons.org/ns#" xmlns:rdf="http://www.w3.org/1999/02/22-rdf-syntax-ns#" xmlns:svg="http://www.w3.org/2000/svg" xmlns="http://www.w3.org/2000/svg" xmlns:sodipodi="http://sodipodi.sourceforge.net/DTD/sodipodi-0.dtd" xmlns:inkscape="http://www.inkscape.org/namespaces/inkscape" width="730" height="730" id="svg8372" sodipodi:version="0.32" inkscape:version="0.46" sodipodi:docname="logo linkin park.svg" inkscape:output_extension="org.inkscape.output.svg.inkscape" version="1.0">
  <defs id="defs8374">
    <inkscape:perspective sodipodi:type="inkscape:persp3d" inkscape:vp_x="0 : 526.18109 : 1" inkscape:vp_y="0 : 1000 : 0" inkscape:vp_z="744.09448 : 526.18109 : 1" inkscape:persp3d-origin="372.04724 : 350.78739 : 1" id="perspective8380"/>
    <inkscape:perspective id="perspective8426" inkscape:persp3d-origin="372.04724 : 350.78739 : 1" inkscape:vp_z="744.09448 : 526.18109 : 1" inkscape:vp_y="0 : 1000 : 0" inkscape:vp_x="0 : 526.18109 : 1" sodipodi:type="inkscape:persp3d"/>
  </defs>
  <sodipodi:namedview id="base" pagecolor="#ffffff" bordercolor="#666666" borderopacity="1.0" inkscape:pageopacity="0.0" inkscape:pageshadow="2" inkscape:zoom="0.69452055" inkscape:cx="365" inkscape:cy="365" inkscape:document-units="px" inkscape:current-layer="layer2" showgrid="false" inkscape:window-width="1024" inkscape:window-height="712" inkscape:window-x="-4" inkscape:window-y="-4"/>
  <metadata id="metadata8377">
    <rdf:RDF>
      <cc:Work rdf:about="">
        <dc:format>image/svg+xml</dc:format>
        <dc:type rdf:resource="http://purl.org/dc/dcmitype/StillImage"/>
      </cc:Work>
    </rdf:RDF>
  </metadata>
  <g inkscape:label="source" inkscape:groupmode="layer" id="layer1" style="display:inline"/>
  <g inkscape:groupmode="layer" id="layer2" inkscape:label="dessin">
    <path style="opacity:1;fill:#0000ff;fill-opacity:1;fill-rule:evenodd;stroke:#4e10d4;stroke-width:5.05917168;stroke-linecap:butt;stroke-miterlimit:4;stroke-dasharray:none;stroke-opacity:1" d="" id="path8954"/>
    <path style="opacity:1;fill:#0000ff;fill-opacity:1;fill-rule:evenodd;stroke:#4e10d4;stroke-width:5.05917168;stroke-linecap:butt;stroke-miterlimit:4;stroke-dasharray:none;stroke-opacity:1" d="" id="path8956"/>
    <path style="opacity:1;fill:#000000;fill-opacity:1;fill-rule:evenodd;stroke:#000000;stroke-width:5.06340885;stroke-linecap:butt;stroke-miterlimit:4;stroke-dasharray:none;stroke-opacity:1" d="M 373.72838,7.5316996 L 363.74406,27.28432 L 353.79113,47.03694 L 376.71112,47.41081 C 457.9559,48.64319 533.73258,80.75099 592.19051,138.7589 C 640.87917,187.07274 671.0246,246.44053 682.26924,316.06516 C 685.1926,334.16614 685.21117,389.57117 682.30063,407.69364 C 671.13503,477.21517 641.04715,536.97262 593.13243,584.75066 C 544.63743,633.10728 484.96556,663.2299 416.05189,674.1671 C 379.75649,679.92753 325.67166,677.18886 289.86631,667.78022 L 281.45184,665.56817 L 271.6559,685.60119 C 266.27365,696.61896 261.85994,706.19551 261.85995,706.88044 C 261.85995,708.36506 293.05748,715.98047 310.99667,718.87532 C 317.98581,720.00317 332.49356,721.37355 343.21025,721.92857 C 431.05468,726.4783 510.4557,702.2592 580.98169,649.42959 C 598.9222,635.99075 634.46063,600.68189 648.17182,582.66324 C 693.96877,522.47887 718.53213,454.40484 722.17516,377.59738 C 724.00017,339.1201 717.22572,292.52048 704.02754,252.63245 C 665.86952,137.31022 567.70611,46.6034 449.92953,17.81304 C 428.41816,12.55461 394.90491,7.5316996 381.23233,7.5316996 L 373.72838,7.5316996 z M 322.58225,9.7748996 C 313.63021,9.7478896 276.44319,17.90689 254.23042,25.13459 C 135.72086,63.69585 43.153483,164.93631 16.05083,285.62618 C 4.2839118,338.02498 4.7202678,398.46425 17.275323,449.59787 C 42.506258,552.35719 113.11506,639.66592 209.33235,687.09666 L 222.04823,693.35892 C 249.04395,633.204 278.22339,574.05491 305.91031,514.21449 L 252.53497,514.46373 L 226.00429,567.39702 C 211.39972,596.52544 198.0078,625.81708 197.93514,626.4991 C 138.02223,599.69743 87.223534,513.11565 62.895539,441.62204 C 55.537861,412.69205 53.210291,393.68092 53.193785,362.3 C 53.171099,319.25086 59.716454,284.12951 74.920688,245.74707 C 112.04212,152.03557 192.91574,81.32658 291.53037,56.35245 L 306.75803,52.48916 L 315.67486,32.05112 C 320.56726,20.79856 324.56027,11.02556 324.56028,10.3357 C 324.56028,9.9714596 323.86111,9.7787596 322.58225,9.7748996 z M 352.44105,49.62285 L 255.07815,251.76009 C 201.67954,362.03195 151.23815,465.67946 142.98994,482.09311 L 128.01345,511.94013 L 188.98692,511.94013 L 249.9918,511.94013 L 307.79414,510.25772 C 314.14284,495.76046 322.0787,481.90501 327.95119,467.20076 L 276.39689,467.1696 C 248.87622,466.51373 230.75068,466.18095 204.27738,465.86106 C 204.27738,465.48331 249.91555,372.5861 305.72193,259.45552 L 407.48044,52.14646 L 398.752,51.05601 C 393.96638,50.45392 381.59431,49.87006 371.24801,49.77863 L 352.44105,49.62285 z M 423.30466,172.1888 C 421.89127,172.96522 278.34487,461.50056 278.32898,463.59048 L 330.83974,463.18168 L 376.20877,369.43463 C 401.16266,317.88195 422.14967,275.10184 422.83369,274.34787 C 423.51769,273.59387 445.9506,315.84724 472.69254,368.25072 C 499.43453,420.65415 520.82867,464.01814 520.22799,464.61484 C 519.6273,465.2116 477.23962,465.93431 426.03622,466.23493 L 332.94335,466.79573 L 311.53042,511.09893 L 415.04718,510.56929 C 471.98066,510.28665 536.47376,509.52898 558.37566,508.88689 L 598.21878,507.73413 L 511.40537,339.5876 C 463.6648,247.11644 424.02474,171.79329 423.30466,172.1888 z" id="path8966" sodipodi:nodetypes="ccccssssscccsssssssscccssscccccccsscccsccccccccccccccccccccssscccccccc"/>
  </g>
</svg>